<svg xmlns="http://www.w3.org/2000/svg" xmlns:xlink="http://www.w3.org/1999/xlink" width="205.581" height="371.229" viewBox="0 0 205.581 371.229"><defs><clipPath id="a"><rect width="205.581" height="371.229" fill="none"/></clipPath></defs><g clip-path="url(#a)"><path d="M3.611,24.615l22.4,16,22.406-16,22.406,16,22.409-16,22.41,16,22.409-16,22.411,16,22.413-16,22.413,16" fill="none" stroke="#fc4349" stroke-miterlimit="10" stroke-width="1"/><path d="M.291.615l22.4,16L45.1.615l22.406,16,22.409-16,22.409,16,22.409-16,22.411,16,22.413-16,22.413,16" fill="none" stroke="#fc4349" stroke-miterlimit="10" stroke-width="1"/><path d="M3.611,72.615l22.4,16,22.406-16,22.406,16,22.409-16,22.41,16,22.409-16,22.411,16,22.413-16,22.413,16" fill="none" stroke="#fc4349" stroke-miterlimit="10" stroke-width="1"/><path d="M.291,48.615l22.4,16,22.407-16,22.406,16,22.409-16,22.409,16,22.409-16,22.411,16,22.413-16,22.413,16" fill="none" stroke="#fc4349" stroke-miterlimit="10" stroke-width="1"/><path d="M3.611,117.615l22.4,16,22.406-16,22.406,16,22.409-16,22.41,16,22.409-16,22.411,16,22.413-16,22.413,16" fill="none" stroke="#fc4349" stroke-miterlimit="10" stroke-width="1"/><path d="M.291,93.615l22.4,16,22.407-16,22.406,16,22.409-16,22.409,16,22.409-16,22.411,16,22.413-16,22.413,16" fill="none" stroke="#fc4349" stroke-miterlimit="10" stroke-width="1"/><path d="M3.611,165.615l22.4,16,22.406-16,22.406,16,22.409-16,22.41,16,22.409-16,22.411,16,22.413-16,22.413,16" fill="none" stroke="#fc4349" stroke-miterlimit="10" stroke-width="1"/><path d="M.291,141.615l22.4,16,22.407-16,22.406,16,22.409-16,22.409,16,22.409-16,22.411,16,22.413-16,22.413,16" fill="none" stroke="#fc4349" stroke-miterlimit="10" stroke-width="1"/><path d="M3.611,213.615l22.4,16,22.406-16,22.406,16,22.409-16,22.41,16,22.409-16,22.411,16,22.413-16,22.413,16" fill="none" stroke="#fc4349" stroke-miterlimit="10" stroke-width="1"/><path d="M.291,189.615l22.4,16,22.407-16,22.406,16,22.409-16,22.409,16,22.409-16,22.411,16,22.413-16,22.413,16" fill="none" stroke="#fc4349" stroke-miterlimit="10" stroke-width="1"/><path d="M3.611,261.615l22.4,16,22.406-16,22.406,16,22.409-16,22.41,16,22.409-16,22.411,16,22.413-16,22.413,16" fill="none" stroke="#fc4349" stroke-miterlimit="10" stroke-width="1"/><path d="M.291,237.615l22.4,16,22.407-16,22.406,16,22.409-16,22.409,16,22.409-16,22.411,16,22.413-16,22.413,16" fill="none" stroke="#fc4349" stroke-miterlimit="10" stroke-width="1"/><path d="M3.611,306.615l22.4,16,22.406-16,22.406,16,22.409-16,22.41,16,22.409-16,22.411,16,22.413-16,22.413,16" fill="none" stroke="#fc4349" stroke-miterlimit="10" stroke-width="1"/><path d="M.291,282.615l22.4,16,22.407-16,22.406,16,22.409-16,22.409,16,22.409-16,22.411,16,22.413-16,22.413,16" fill="none" stroke="#fc4349" stroke-miterlimit="10" stroke-width="1"/><path d="M3.611,354.615l22.4,16,22.406-16,22.406,16,22.409-16,22.41,16,22.409-16,22.411,16,22.413-16,22.413,16" fill="none" stroke="#fc4349" stroke-miterlimit="10" stroke-width="1"/><path d="M.291,330.615l22.4,16,22.407-16,22.406,16,22.409-16,22.409,16,22.409-16,22.411,16,22.413-16,22.413,16" fill="none" stroke="#fc4349" stroke-miterlimit="10" stroke-width="1"/></g></svg>