<svg id="Group_47" data-name="Group 47" xmlns="http://www.w3.org/2000/svg" xmlns:xlink="http://www.w3.org/1999/xlink" width="136.168" height="136.438" viewBox="0 0 136.168 136.438">
  <defs>
    <clipPath id="clip-path">
      <rect id="Rectangle_136" data-name="Rectangle 136" width="136.168" height="136.438" fill="none"/>
    </clipPath>
  </defs>
  <g id="Group_46" data-name="Group 46" clip-path="url(#clip-path)">
    <path id="Path_180" data-name="Path 180" d="M78.354,0V1c22.292,0,47.152,21.24,54.486,40.231,2.977,7.707,4.611,18.633-4.512,26.915-13.1,11.9-22.821,23.748-31.4,34.2C81.182,121.559,69.8,135.438,49.218,135.438c-.711,0-1.442-.017-2.172-.05-16.217-.743-28.339-7.647-36.031-20.517C4.369,103.751,1,88.28,1,68.887,1,47.87,6.383,33.534,17.944,23.771c10.6-8.952,25.26-13.429,42.235-18.613,2.965-.905,6.028-1.841,9.121-2.818A30.053,30.053,0,0,1,78.353,1V0m0,0A30.94,30.94,0,0,0,69,1.387c-38,12-69,17-69,67.5,0,35.622,11.414,65.869,47,67.5.751.034,1.489.051,2.218.051,32.449,0,42.616-33.809,79.781-67.551C153.048,47.054,111.6,0,78.353,0" fill="#fc4349"/>
  </g>
</svg>
