<svg xmlns="http://www.w3.org/2000/svg" width="15.162" height="12.6" viewBox="0 0 15.162 12.6">
  <path id="Path_2701" data-name="Path 2701" d="M7.336-2.744a2.7,2.7,0,0,1-.77,1.981A3.357,3.357,0,0,1,4.508.168V1.4H3.57V.182A4.01,4.01,0,0,1,1.554-.476,3.17,3.17,0,0,1,.35-2.03L2.016-3A1.849,1.849,0,0,0,3.57-1.722V-4.144H3.556l-.028-.014A7.978,7.978,0,0,1,2-4.886,2.666,2.666,0,0,1,.784-7.154a2.54,2.54,0,0,1,.8-1.974A3.314,3.314,0,0,1,3.57-9.982V-11.2h.938v1.246A3.207,3.207,0,0,1,7.2-7.98l-1.624.952A1.547,1.547,0,0,0,4.508-8.05v2.338a10.215,10.215,0,0,1,1.75.826A2.507,2.507,0,0,1,7.336-2.744ZM2.7-7.14a.808.808,0,0,0,.2.539,2.149,2.149,0,0,0,.672.469v-1.96A.916.916,0,0,0,2.7-7.14ZM4.508-3.766V-1.75a.951.951,0,0,0,.9-.98Q5.4-3.36,4.508-3.766Zm11,1.022a2.7,2.7,0,0,1-.77,1.981,3.357,3.357,0,0,1-2.058.931V1.4h-.938V.182A4.01,4.01,0,0,1,9.73-.476a3.17,3.17,0,0,1-1.2-1.554L10.192-3a1.849,1.849,0,0,0,1.554,1.274V-4.144h-.014L11.7-4.158a7.978,7.978,0,0,1-1.526-.728A2.666,2.666,0,0,1,8.96-7.154a2.54,2.54,0,0,1,.8-1.974,3.314,3.314,0,0,1,1.988-.854V-11.2h.938v1.246A3.207,3.207,0,0,1,15.372-7.98l-1.624.952A1.547,1.547,0,0,0,12.684-8.05v2.338a10.216,10.216,0,0,1,1.75.826A2.507,2.507,0,0,1,15.512-2.744Zm-4.634-4.4a.808.808,0,0,0,.2.539,2.149,2.149,0,0,0,.672.469v-1.96A.916.916,0,0,0,10.878-7.14Zm1.806,3.374V-1.75a.951.951,0,0,0,.9-.98Q13.58-3.36,12.684-3.766Z" transform="translate(-0.35 11.2)" fill="#10111a"/>
</svg>
