<svg id="Group_409" data-name="Group 409" xmlns="http://www.w3.org/2000/svg" xmlns:xlink="http://www.w3.org/1999/xlink" width="205" height="363" viewBox="0 0 205 363">
  <defs>
    <clipPath id="clip-path">
      <rect id="Rectangle_144" data-name="Rectangle 144" width="205" height="363" fill="none"/>
    </clipPath>
  </defs>
  <g id="Group_58" data-name="Group 58" clip-path="url(#clip-path)">
    <path id="Path_1743" data-name="Path 1743" d="M3.32,24.5c11.2,0,11.2,8,22.4,8s11.2-8,22.406-8,11.2,8,22.406,8,11.2-8,22.409-8,11.205,8,22.41,8,11.2-8,22.409-8,11.205,8,22.411,8,11.206-8,22.413-8,11.206,8,22.413,8" fill="none" stroke="#fc4349" stroke-miterlimit="10" stroke-width="1"/>
    <path id="Path_1744" data-name="Path 1744" d="M0,.5c11.2,0,11.2,8,22.4,8s11.2-8,22.407-8,11.2,8,22.406,8,11.2-8,22.409-8,11.2,8,22.409,8,11.205-8,22.409-8,11.205,8,22.411,8,11.207-8,22.413-8,11.207,8,22.413,8" fill="none" stroke="#fc4349" stroke-miterlimit="10" stroke-width="1"/>
    <path id="Path_1745" data-name="Path 1745" d="M3.32,72.5c11.2,0,11.2,8,22.4,8s11.2-8,22.406-8,11.2,8,22.406,8,11.2-8,22.409-8,11.205,8,22.41,8,11.2-8,22.409-8,11.205,8,22.411,8,11.206-8,22.413-8,11.206,8,22.413,8" fill="none" stroke="#fc4349" stroke-miterlimit="10" stroke-width="1"/>
    <path id="Path_1746" data-name="Path 1746" d="M0,48.5c11.2,0,11.2,8,22.4,8s11.2-8,22.407-8,11.2,8,22.406,8,11.2-8,22.409-8,11.2,8,22.409,8,11.205-8,22.409-8,11.205,8,22.411,8,11.207-8,22.413-8,11.207,8,22.413,8" fill="none" stroke="#fc4349" stroke-miterlimit="10" stroke-width="1"/>
    <path id="Path_1747" data-name="Path 1747" d="M3.32,117.5c11.2,0,11.2,8,22.4,8s11.2-8,22.406-8,11.2,8,22.406,8,11.2-8,22.409-8,11.205,8,22.41,8,11.2-8,22.409-8,11.205,8,22.411,8,11.206-8,22.413-8,11.206,8,22.413,8" fill="none" stroke="#fc4349" stroke-miterlimit="10" stroke-width="1"/>
    <path id="Path_1748" data-name="Path 1748" d="M0,93.5c11.2,0,11.2,8,22.4,8s11.2-8,22.407-8,11.2,8,22.406,8,11.2-8,22.409-8,11.2,8,22.409,8,11.205-8,22.409-8,11.205,8,22.411,8,11.207-8,22.413-8,11.207,8,22.413,8" fill="none" stroke="#fc4349" stroke-miterlimit="10" stroke-width="1"/>
    <path id="Path_1749" data-name="Path 1749" d="M3.32,165.5c11.2,0,11.2,8,22.4,8s11.2-8,22.406-8,11.2,8,22.406,8,11.2-8,22.409-8,11.205,8,22.41,8,11.2-8,22.409-8,11.205,8,22.411,8,11.206-8,22.413-8,11.206,8,22.413,8" fill="none" stroke="#fc4349" stroke-miterlimit="10" stroke-width="1"/>
    <path id="Path_1750" data-name="Path 1750" d="M0,141.5c11.2,0,11.2,8,22.4,8s11.2-8,22.407-8,11.2,8,22.406,8,11.2-8,22.409-8,11.2,8,22.409,8,11.205-8,22.409-8,11.205,8,22.411,8,11.207-8,22.413-8,11.207,8,22.413,8" fill="none" stroke="#fc4349" stroke-miterlimit="10" stroke-width="1"/>
    <path id="Path_1751" data-name="Path 1751" d="M3.32,213.5c11.2,0,11.2,8,22.4,8s11.2-8,22.406-8,11.2,8,22.406,8,11.2-8,22.409-8,11.205,8,22.41,8,11.2-8,22.409-8,11.205,8,22.411,8,11.206-8,22.413-8,11.206,8,22.413,8" fill="none" stroke="#fc4349" stroke-miterlimit="10" stroke-width="1"/>
    <path id="Path_1752" data-name="Path 1752" d="M0,189.5c11.2,0,11.2,8,22.4,8s11.2-8,22.407-8,11.2,8,22.406,8,11.2-8,22.409-8,11.2,8,22.409,8,11.205-8,22.409-8,11.205,8,22.411,8,11.207-8,22.413-8,11.207,8,22.413,8" fill="none" stroke="#fc4349" stroke-miterlimit="10" stroke-width="1"/>
    <path id="Path_1753" data-name="Path 1753" d="M3.32,261.5c11.2,0,11.2,8,22.4,8s11.2-8,22.406-8,11.2,8,22.406,8,11.2-8,22.409-8,11.205,8,22.41,8,11.2-8,22.409-8,11.205,8,22.411,8,11.206-8,22.413-8,11.206,8,22.413,8" fill="none" stroke="#fc4349" stroke-miterlimit="10" stroke-width="1"/>
    <path id="Path_1754" data-name="Path 1754" d="M0,237.5c11.2,0,11.2,8,22.4,8s11.2-8,22.407-8,11.2,8,22.406,8,11.2-8,22.409-8,11.2,8,22.409,8,11.205-8,22.409-8,11.205,8,22.411,8,11.207-8,22.413-8,11.207,8,22.413,8" fill="none" stroke="#fc4349" stroke-miterlimit="10" stroke-width="1"/>
    <path id="Path_1755" data-name="Path 1755" d="M3.32,306.5c11.2,0,11.2,8,22.4,8s11.2-8,22.406-8,11.2,8,22.406,8,11.2-8,22.409-8,11.205,8,22.41,8,11.2-8,22.409-8,11.205,8,22.411,8,11.206-8,22.413-8,11.206,8,22.413,8" fill="none" stroke="#fc4349" stroke-miterlimit="10" stroke-width="1"/>
    <path id="Path_1756" data-name="Path 1756" d="M0,282.5c11.2,0,11.2,8,22.4,8s11.2-8,22.407-8,11.2,8,22.406,8,11.2-8,22.409-8,11.2,8,22.409,8,11.205-8,22.409-8,11.205,8,22.411,8,11.207-8,22.413-8,11.207,8,22.413,8" fill="none" stroke="#fc4349" stroke-miterlimit="10" stroke-width="1"/>
    <path id="Path_1757" data-name="Path 1757" d="M3.32,354.5c11.2,0,11.2,8,22.4,8s11.2-8,22.406-8,11.2,8,22.406,8,11.2-8,22.409-8,11.205,8,22.41,8,11.2-8,22.409-8,11.205,8,22.411,8,11.206-8,22.413-8,11.206,8,22.413,8" fill="none" stroke="#fc4349" stroke-miterlimit="10" stroke-width="1"/>
    <path id="Path_1758" data-name="Path 1758" d="M0,330.5c11.2,0,11.2,8,22.4,8s11.2-8,22.407-8,11.2,8,22.406,8,11.2-8,22.409-8,11.2,8,22.409,8,11.205-8,22.409-8,11.205,8,22.411,8,11.207-8,22.413-8,11.207,8,22.413,8" fill="none" stroke="#fc4349" stroke-miterlimit="10" stroke-width="1"/>
  </g>
</svg>
