<?xml version="1.0" encoding="utf-8"?>
<!-- Generator: Adobe Illustrator 25.2.1, SVG Export Plug-In . SVG Version: 6.00 Build 0)  -->
<svg version="1.1" id="Layer_1" xmlns="http://www.w3.org/2000/svg" xmlns:xlink="http://www.w3.org/1999/xlink" x="0px" y="0px"
	 viewBox="0 0 233.4 47.8" style="enable-background:new 0 0 233.4 47.8;" xml:space="preserve">
<style type="text/css">
	.st0{fill:#572EFF;}
	.st1{fill:#FFFFFF;}
</style>
<path class="st0" d="M228.9,19.9C228.9,19.9,228.9,19.9,228.9,19.9C228.9,19.9,228.9,19.9,228.9,19.9z"/>
<path class="st0" d="M167.8,44.3C167.8,44.2,167.9,44.2,167.8,44.3C167.8,44.2,167.8,44.2,167.8,44.3z"/>
<path class="st0" d="M218.2,44.2C218.2,44.3,218.1,44.3,218.2,44.2C218.2,44.3,218.2,44.3,218.2,44.2z"/>
<path class="st0" d="M222.3,39.8c0,0-0.1,0-0.1,0.1C222.2,39.9,222.3,39.9,222.3,39.8z"/>
<path class="st1" d="M30.9,25c0,8.7-6.1,14.4-14.8,14.4C6.7,39.4,0,32.4,0,23.8C0,15.1,6.8,8.2,15.8,8.2c5.7,0,10.6,2.9,13.1,7
	l-5.1,2.9c-1.4-2.4-4.4-4.2-8.1-4.2c-5.7,0-9.8,4.2-9.8,9.9c0,5.6,4,9.8,10.3,9.8c4.7,0,7.7-2.3,8.8-5.7h-9.1v-5.2h15.1V25z"/>
<path class="st1" d="M56.7,17.4v21.5h-5.5v-2.5c-1.5,1.9-3.9,3.1-7,3.1c-5.7,0-10.4-4.9-10.4-11.3c0-6.4,4.7-11.3,10.4-11.3
	c3.1,0,5.5,1.2,7,3.1v-2.5H56.7z M51.1,28.1c0-3.6-2.5-6.1-6-6.1c-3.4,0-5.9,2.4-5.9,6.1s2.5,6.1,5.9,6.1
	C48.6,34.2,51.1,31.7,51.1,28.1z"/>
<path class="st1" d="M93.5,25.6v13.2H88V26c0-2.5-1.3-4.1-3.6-4.1c-2.4,0-4,1.6-4,4.9v12.1h-5.5V26c0-2.5-1.3-4.1-3.6-4.1
	c-2.4,0-4,1.6-4,4.9v12.1h-5.5V17.4h5.5v2.3c1.2-1.8,3.2-2.9,6-2.9c2.7,0,4.6,1.1,5.8,3.1c1.3-1.9,3.5-3.1,6.4-3.1
	C90.3,16.8,93.5,20.2,93.5,25.6z"/>
<path class="st1" d="M109,34.4c2.1,0,3.9-0.9,4.8-2.1l4.5,2.6c-2,2.9-5.2,4.6-9.4,4.6c-7.2,0-11.8-4.9-11.8-11.3
	c0-6.4,4.6-11.3,11.3-11.3c6.4,0,10.9,5,10.9,11.3c0,0.8-0.1,1.5-0.2,2.3h-16.2C103.7,33.2,106.1,34.4,109,34.4z M113.8,26.1
	c-0.7-3.1-3-4.3-5.3-4.3c-3,0-5,1.6-5.6,4.3H113.8z"/>
<g>
	<path class="st1" d="M171.1,22.2c-3.3,0-5.8,2.4-5.8,5.9c0,3.5,2.5,5.9,5.8,5.9c3.3,0,5.8-2.4,5.8-5.9
		C176.9,24.6,174.4,22.2,171.1,22.2z"/>
	<path class="st1" d="M233.3,27.3c-4-0.5-0.2-0.5-2.7-1.1c-0.2-0.5,3.3,0.5,0-0.5c-2.2-1.2,0.2,0-1.9-1.4c0.8-1,2.7,1.3,1-0.5
		c0.3-1-5.5-2.7-1.7-2.1c-5.3-1.7,2.7-1.2,0.9-1.7c-0.2-0.9-0.3-1.2,1-1.1c0.3-1.1-7.2-3.2-4.2-2.7c0.3,0,0.5,0.2,0.7,0
		c0.9-0.1-1.1-0.1-0.9-0.3c1.5-0.3-2.7-0.5-1.1-1.1c3.3,0.5,3.1,2.6,3.6,0.6c0.4,0.2,2.4,0.2,1.1,0c-0.7-0.7,0.7,0,1-0.4
		c-0.7-0.2-4.5-1.5-2-1.3c1.2,0.6,2.2,0.1,0.3-0.1c-1.5-0.8,2.7,0.6,2,0.1c-2.5-0.8,0-1.5-3.4-3.6c5.1-1,1.1-1.5-2.9-2.1
		c2.3-0.3,1.8-0.8,4.8,0.4c1.6,0.2-2-0.8-1.3-1.2c-0.1-1.8-13-3.9-16.2-3.4c16.6,1.7-1.9,1.3-1,0.3c-32.9-0.7-68.4-9.2-83.4,0.5
		c-6.3,2.8,0.7,1.4-3.2,3.4c-0.5,0.4,0.3,0.3,0.5,0c1.8-0.3-0.9,1.7-0.8,2.2c1.9-1.3,0.9,0.3,0.4,0.7c-2.8,3.7,0.3-0.5,1.7,0.7
		c0.9,0.8-1.7,1.1-1.7,1.8c1.9,1.4-1.8,1.2-1,2.1c-0.9,0.4,1.6-0.1,1.6,0.3c-0.3,0.3-0.7,0.5-1.1,0.3c0.4,0.7,1.5,0.3,1.1,1.3
		c-6.1,5.1,1.4,2.7-0.6,4.8c0,0-1.3,4.4-1.6,5.7c2.8-1.1,0.1,0.8-0.5,1.9c0.7-0.3,1.9-1.7,1.6-0.1c2.2-1.3,1.2,0.8,0.7,1.4
		c-1.3,1.2,1.2-0.3-0.2,0.8c0.3,1,0.6,0.9-0.6,2.3c3.2-0.3-1.2,1.5,1.4,0.7c1.1-0.9-1.1,1,0.8,0.4c-1.3,1,1.5-0.9,0.2,4
		c0.6-0.1,0.5,0.4,0.4,0.8c0.2-0.2,1.4-1.2,1.5,0.4c-2.1-0.5-1.5,1.5,1,1.8c-2.1,1-1.2-0.5-2.3-0.2c0.4,0,1.3,2,0.3,1.6
		c-1,0.2,0.9,0.1,1,0.7c-2-0.2-1,0.5,0.1,1.2c-0.7,0.8,0.3,1.4,0.7,1.9c1.2,0.1-0.3-0.1-0.2-0.7c0.9,0.5,0.9,0,1.5-0.3
		c-1.1,2.6,2.3-0.3,5.8,0.8c-10.6-3.1,5-2.7,13-3c12.4-2.6,47.9,3.8,49.5-1.2c-3.5-0.9,2.1-0.5-1.2-1.4c-1-0.7,9.6,1.7,6.2,0.5
		c0.8-0.1,25.7,3.8,15.2,1.9c-1.9-0.4-11.6-1.5-8.7-2c0.7,0.7,2.3,0.1,4.9,0.4c0.7-0.8,2.7-0.9,5.5,0.1c2.1,0.1,4.7,0.2,1.3-0.2
		c-4-0.7,3.6,0.1,3.6-1.1c4.6,0.6-5.2-2.6-7.6-2.8c-4.5-1.6,4,0.6,4.9,0.2c-8-2.3,4.1,1.4,3-1c-5.1-0.1-2.4-2.1,0.4-1.1
		c3-2.6-1.7-1.6-4.1-2.8c-0.2-1.1,3.1-0.1,4.2,0.1c1.2-0.2,0.7-0.9,4.1,0c-1.7-0.9-2.6-0.6-2.7-2.2c-2.7-2.5-1.2-2,2.2-1.3
		c2.4,0.6-2.4-0.6-3-1.3c-0.9-1.1,6.7,1.2,1.1-0.9c2.3-0.2-1.1-1.7-1.6-2C224.9,26.2,234.5,28.2,233.3,27.3z M144.4,33.6
		c3.4,0,6.4-1.6,7.8-4.2l5.1,3c-2.5,4.3-7.4,7.1-12.9,7.1c-9.1,0-15.6-6.9-15.6-15.6c0-8.8,6.5-15.6,15.6-15.6
		c5.5,0,10.3,2.8,12.9,7.1l-5.1,3c-1.5-2.7-4.4-4.3-7.8-4.3c-5.9,0-9.7,4.1-9.7,9.9C134.7,29.6,138.6,33.6,144.4,33.6z M171.1,39.4
		c-6.3,0-11.3-4.9-11.3-11.3c0-6.4,5-11.3,11.3-11.3c6.3,0,11.4,4.9,11.4,11.3C182.5,34.5,177.4,39.4,171.1,39.4z M206.4,38.8h-5.5
		V26.3c0-2.9-1.8-4.4-4.3-4.4c-2.7,0-4.7,1.6-4.7,5.3v11.6h-5.5V17.4h5.5v2.4c1.3-1.9,3.5-3,6.4-3c4.6,0,8.1,3.2,8.1,8.9V38.8z"/>
</g>
</svg>
