<svg xmlns="http://www.w3.org/2000/svg" xmlns:xlink="http://www.w3.org/1999/xlink" width="104.513" height="105.204" viewBox="0 0 104.513 105.204"><defs><clipPath id="a"><rect width="104.513" height="105.204" transform="translate(0 0)" fill="none"/></clipPath></defs><g clip-path="url(#a)"><path d="M38.051,0V1c11.806,0,23,3.5,29.943,9.353C84.63,24.382,94.6,33.859,99.653,43.747c4.981,9.754,5.127,19.993.5,35.341C93.878,99.933,85.29,104.2,74.327,104.2c-8.128,0-18.779-2.683-30.056-5.524C1.771,87.974,1.513,68.224,1.086,35.5Q1.05,32.719,1,29.823a24.5,24.5,0,0,1,7.007-18.28C14.6,4.843,25.545,1,38.05,1V0m0,0C18.812,0-.349,9.243,0,29.841.619,65.612-1.685,88.135,44.027,99.649c12.4,3.123,22.283,5.555,30.3,5.555,12.835,0,20.885-6.231,26.787-25.828,9.225-30.624.077-42.336-32.475-69.788C61.241,3.35,49.632,0,38.05,0" fill="#fc4349"/></g></svg>