<svg xmlns="http://www.w3.org/2000/svg" xmlns:xlink="http://www.w3.org/1999/xlink" width="388.711" height="18.742" viewBox="0 0 388.711 18.742"><defs><clipPath id="a"><rect width="388.711" height="18.742" fill="none" stroke="#e22630" stroke-width="1"/></clipPath></defs><g transform="translate(0 0)"><g transform="translate(0 0)" clip-path="url(#a)"><path d="M1.491,18.736a19.426,19.426,0,0,1,38.6-.014" transform="translate(-0.144 -0.144)" fill="none" stroke="#e22630" stroke-linejoin="round" stroke-width="3"/><path d="M44.212,18.736a19.426,19.426,0,0,1,38.6-.014" transform="translate(-4.263 -0.144)" fill="none" stroke="#e22630" stroke-linejoin="round" stroke-width="3"/><path d="M86.933,18.736a19.426,19.426,0,0,1,38.6-.014" transform="translate(-8.383 -0.144)" fill="none" stroke="#e22630" stroke-linejoin="round" stroke-width="3"/><path d="M129.654,18.736a19.426,19.426,0,0,1,38.6-.014" transform="translate(-12.502 -0.144)" fill="none" stroke="#e22630" stroke-linejoin="round" stroke-width="3"/><path d="M172.375,18.736a19.426,19.426,0,0,1,38.6-.014" transform="translate(-16.621 -0.144)" fill="none" stroke="#e22630" stroke-linejoin="round" stroke-width="3"/><path d="M215.1,18.736a19.426,19.426,0,0,1,38.6-.014" transform="translate(-20.741 -0.144)" fill="none" stroke="#e22630" stroke-linejoin="round" stroke-width="3"/><path d="M257.818,18.736a19.425,19.425,0,0,1,38.6-.014" transform="translate(-24.86 -0.144)" fill="none" stroke="#e22630" stroke-linejoin="round" stroke-width="3"/><path d="M300.538,18.736a19.426,19.426,0,0,1,38.6-.014" transform="translate(-28.98 -0.144)" fill="none" stroke="#e22630" stroke-linejoin="round" stroke-width="3"/><path d="M343.259,18.736a19.426,19.426,0,0,1,38.6-.014" transform="translate(-33.099 -0.144)" fill="none" stroke="#e22630" stroke-linejoin="round" stroke-width="3"/><path d="M385.981,18.736a19.426,19.426,0,0,1,38.6-.014" transform="translate(-37.218 -0.144)" fill="none" stroke="#e22630" stroke-linejoin="round" stroke-width="3"/></g></g></svg>